<svg width="32" height="33" viewBox="0 0 32 33" fill="none" xmlns="http://www.w3.org/2000/svg">
<g clip-path="url(#clip0_102_1368)">
<path d="M29.0553 25.438C28.5714 26.556 27.9985 27.5851 27.3349 28.5312C26.4302 29.821 25.6895 30.7139 25.1186 31.2096C24.2337 32.0234 23.2856 32.4402 22.2703 32.4639C21.5415 32.4639 20.6625 32.2565 19.6393 31.8358C18.6128 31.417 17.6694 31.2096 16.8068 31.2096C15.9021 31.2096 14.9319 31.417 13.8941 31.8358C12.8547 32.2565 12.0174 32.4758 11.3772 32.4975C10.4036 32.539 9.43321 32.1104 8.46455 31.2096C7.84629 30.6704 7.07299 29.746 6.1466 28.4364C5.15265 27.0379 4.33549 25.4162 3.69532 23.5674C3.00971 21.5704 2.66602 19.6367 2.66602 17.7645C2.66602 15.62 3.12941 13.7704 4.05758 12.2204C4.78703 10.9754 5.75747 9.9933 6.97205 9.27233C8.18663 8.55136 9.49898 8.18397 10.9123 8.16046C11.6856 8.16046 12.6997 8.39967 13.9599 8.86977C15.2165 9.34146 16.0234 9.58067 16.3772 9.58067C16.6417 9.58067 17.538 9.30097 19.0576 8.74336C20.4946 8.22624 21.7074 8.01212 22.7009 8.09646C25.3932 8.31374 27.4158 9.37504 28.761 11.2871C26.3532 12.746 25.1621 14.7894 25.1858 17.4108C25.2075 19.4526 25.9482 21.1517 27.404 22.5008C28.0637 23.1269 28.8005 23.6109 29.6202 23.9546C29.4424 24.4701 29.2548 24.9639 29.0553 25.438ZM22.8807 1.14043C22.8807 2.74079 22.296 4.23505 21.1306 5.61812C19.7242 7.26232 18.0232 8.21241 16.1785 8.06249C16.155 7.8705 16.1413 7.66843 16.1413 7.45609C16.1413 5.91974 16.8102 4.27554 17.9979 2.93119C18.5908 2.25052 19.345 1.68455 20.2595 1.23306C21.1721 0.788318 22.0353 0.542363 22.8471 0.500244C22.8708 0.714188 22.8807 0.928145 22.8807 1.14041V1.14043Z" fill="white"/>
</g>
<defs>
<clipPath id="clip0_102_1368">
<rect width="32" height="32" fill="white" transform="translate(0 0.5)"/>
</clipPath>
</defs>
</svg>
