<svg width="27" height="29" viewBox="0 0 27 29" fill="none" xmlns="http://www.w3.org/2000/svg">
<mask id="mask0_109_1099" style="mask-type:alpha" maskUnits="userSpaceOnUse" x="0" y="0" width="27" height="29">
<path d="M25.7078 12.7158C27.123 13.4946 27.123 15.5054 25.7078 16.2842L3.0743 28.7388C1.69596 29.4973 -6.85531e-08 28.5131 0 26.9547L1.09577e-06 2.04532C1.16432e-06 0.486949 1.69596 -0.497297 3.0743 0.261168L25.7078 12.7158Z" fill="#C4C4C4"/>
</mask>
<g mask="url(#mask0_109_1099)">
<path d="M0.707963 28.494L14.826 14.2966L0.940476 0.333008C0.386519 0.688131 0 1.30124 0 2.0452V26.9546C0 27.5893 0.281336 28.1287 0.707963 28.494Z" fill="url(#paint0_linear_109_1099)"/>
<path d="M25.7079 12.7159C27.1231 13.4947 27.1231 15.5054 25.7079 16.2842L19.9979 19.4263L14.8262 14.2967L19.7342 9.42871L25.7079 12.7159Z" fill="url(#paint1_linear_109_1099)"/>
<path d="M19.9989 19.4262L14.8271 14.2966L0.708984 28.4941C1.32983 29.0257 2.2584 29.1884 3.07537 28.7388L19.9989 19.4262Z" fill="url(#paint2_linear_109_1099)"/>
<path d="M0.939453 0.333109L14.825 14.2967L19.733 9.42865L3.07324 0.261168C2.35293 -0.135203 1.54587 -0.0556278 0.939453 0.333109Z" fill="url(#paint3_linear_109_1099)"/>
</g>
<defs>
<linearGradient id="paint0_linear_109_1099" x1="9.67811" y1="8.78221" x2="0.0792547" y2="18.46" gradientUnits="userSpaceOnUse">
<stop stop-color="#00C3FF"/>
<stop offset="1" stop-color="#1BE2FA"/>
</linearGradient>
<linearGradient id="paint1_linear_109_1099" x1="14.8262" y1="14.2967" x2="27.593" y2="14.2967" gradientUnits="userSpaceOnUse">
<stop stop-color="#FFCE00"/>
<stop offset="1" stop-color="#FFEA00"/>
</linearGradient>
<linearGradient id="paint2_linear_109_1099" x1="0.412914" y1="30.2272" x2="17.3954" y2="16.612" gradientUnits="userSpaceOnUse">
<stop stop-color="#DE2453"/>
<stop offset="1" stop-color="#FE3944"/>
</linearGradient>
<linearGradient id="paint3_linear_109_1099" x1="1.23445" y1="-1.2254" x2="17.3961" y2="11.9753" gradientUnits="userSpaceOnUse">
<stop stop-color="#11D574"/>
<stop offset="1" stop-color="#01F176"/>
</linearGradient>
</defs>
</svg>
