<svg width="167" height="56" viewBox="0 0 167 56" fill="none" xmlns="http://www.w3.org/2000/svg">
<circle cx="28" cy="28" r="28" fill="url(#paint0_linear_102_1374)"/>
<path d="M28.5908 15.1054C28.6791 15.1201 28.8263 15.1201 28.9219 15.1054C29.0102 15.0907 28.9367 15.076 28.7527 15.076C28.5687 15.076 28.4952 15.0907 28.5908 15.1054Z" fill="black"/>
<path d="M26.3097 15.1784C26.398 15.1931 26.5305 15.1931 26.6041 15.1784C26.6703 15.1563 26.5967 15.1416 26.4348 15.149C26.273 15.149 26.2141 15.1637 26.3097 15.1784Z" fill="black"/>
<path d="M30.0617 15.1784C30.15 15.1931 30.2824 15.1931 30.356 15.1784C30.4223 15.1563 30.3487 15.1416 30.1868 15.149C30.0249 15.149 29.966 15.1637 30.0617 15.1784Z" fill="black"/>
<path d="M24.987 40.9473C24.1261 40.6897 23.4859 40.4322 23.0812 40.1747C22.9267 40.079 22.7795 39.9981 22.7648 39.9981C22.7133 39.9981 23.0665 41.249 23.3535 42.0804C23.7582 43.243 24.4131 44.7 24.6044 44.8471C24.8398 45.0311 25.767 45.2739 26.6205 45.3696C27.7316 45.502 27.7978 45.5167 27.9524 45.6713C28.232 45.9509 28.0701 46.3409 27.6286 46.4144C27.3269 46.4733 26.3115 46.3482 25.6345 46.1716C25.3181 46.0907 25.0459 46.0392 25.0311 46.0539C25.0164 46.0612 25.1857 46.5101 25.4064 47.0472C26.0392 48.6372 27.4483 51.2929 28.3203 51.4033C28.6955 51.4033 29.3357 50.6528 30.0642 49.3577L30.3659 48.8279L29.4682 48.8353C28.9752 48.8353 28.5189 48.8206 28.4454 48.7911C28.2688 48.7176 28.1363 48.357 28.232 48.1878C28.3718 47.9155 28.5042 47.8787 29.6006 47.8051C30.903 47.7242 30.7926 47.7978 31.3666 46.5837C31.6903 45.9141 32.5071 43.9494 32.5071 43.8611C32.5071 43.8464 32.382 43.8758 32.2201 43.9347C31.4255 44.2143 29.0855 44.3836 28.9163 44.1702C28.7397 43.9494 28.7471 43.7581 28.9237 43.5742C29.0635 43.4344 29.2033 43.3902 29.6448 43.3534C31.396 43.1915 32.0288 43.1032 32.566 42.9193C32.875 42.8163 32.956 42.647 33.9567 40.0937C33.9788 40.0422 33.8095 40.1011 33.5961 40.2188C31.3224 41.4476 27.7095 41.7567 24.987 40.9473Z" fill="#E58B1B"/>
<path d="M30.8144 15.2119C32.0283 15.337 33.9411 16.1163 34.9199 16.8594C35.4497 17.2567 36.2885 18.1184 36.4062 18.3906C36.4504 18.4862 36.5101 18.5664 36.5322 18.5664C36.5562 18.5642 36.7396 18.3961 36.9443 18.1914C37.6285 17.5 38.3717 17.1619 39.5342 17C41.1013 16.794 43.2937 17.4409 44.3828 18.4414C45.0669 19.0594 45.1483 19.4056 44.7881 20.1484C44.3539 21.0682 43.5886 21.79 42.4629 22.3271C41.0796 22.9967 39.4532 23.0038 38.0332 22.3564L37.5029 22.1133L37.5107 22.9307C37.5107 23.909 37.4512 24.2623 36.9804 26.1455C36.5316 27.9336 36.4653 28.3756 36.458 29.3984V30.2148L35.9287 29.6709C34.6189 28.317 32.8727 27.5584 30.6211 27.2861C29.5319 27.1537 26.6843 27.139 25.7646 27.2861C23.597 27.5599 21.4877 28.6383 20.7978 29.5488L20.1455 30.2109L20.1914 29.6865C20.1913 28.4728 19.9599 27.5072 19.7109 26.5361C19.1958 24.5273 19.1079 24.0115 19.1006 22.9961V22.0986L18.747 22.2754C17.9671 22.6727 17.3706 22.7979 16.3037 22.7979C15.4283 22.7905 15.244 22.7684 14.7217 22.5918C13.8978 22.3196 13.2653 21.9294 12.6621 21.3262C12.0736 20.7376 11.683 20.0683 11.624 19.5459C11.5872 19.2369 11.6099 19.1551 11.8086 18.8828C12.3239 18.1766 13.5669 17.4628 14.8027 17.1611C15.6635 16.9478 17.0689 16.9264 17.7754 17.125C18.4596 17.3089 19.063 17.6545 19.6074 18.1621C19.9164 18.4491 20.0931 18.5667 20.1152 18.5078C20.1669 18.3384 20.8298 17.5811 21.2051 17.25C22.3382 16.2493 23.9052 15.5283 25.4062 15.3223C25.7594 15.2708 26.0688 15.2193 26.0761 15.2119H30.8144ZM23.9717 23.8691C23.9717 22.5741 23.0813 21.7422 22.2793 22.2793C22.1395 22.375 21.9477 22.6104 21.8447 22.8164C21.6829 23.1327 21.6537 23.2728 21.6611 23.8467C21.6611 24.3838 21.6903 24.5754 21.8301 24.8623C22.2642 25.7452 23.0002 25.8773 23.5888 25.1709C23.861 24.8325 23.9716 24.4649 23.9717 23.8691ZM34.9873 24.001C35.0828 22.6692 34.1483 21.7206 33.3095 22.2871C32.9051 22.5593 32.7067 23.0005 32.6699 23.7139C32.6331 24.4055 32.7509 24.8253 33.082 25.2227C33.8178 26.098 34.8843 25.421 34.9873 24.001Z" fill="white"/>
<path d="M26.4363 28.4968C27.1059 28.4085 29.8656 28.4534 30.5867 28.5564C32.0804 28.7772 33.4271 29.2701 34.3689 29.947C36.4438 31.4261 37.2014 34.0819 36.1492 36.1863C35.3399 37.7976 33.5449 39.1001 31.3523 39.6668C29.5276 40.145 27.1946 40.1159 25.1785 39.5935C22.5738 38.9092 20.5724 37.1725 20.1014 35.1785C19.8438 34.06 20.0867 32.6179 20.7195 31.573C21.0138 31.0727 21.7787 30.2486 22.2791 29.8806C23.2283 29.1816 24.6263 28.7176 26.4363 28.4968ZM23.9275 35.8621C23.464 35.4279 23.1619 35.3181 22.9559 35.5242C22.6985 35.7818 22.949 36.3256 23.6111 36.9363C24.7517 37.9885 26.3406 38.5261 28.3494 38.5261C30.4831 38.5261 31.9988 37.9965 33.1688 36.8416C33.7499 36.2677 33.9121 35.9068 33.7283 35.6199C33.537 35.3256 33.2428 35.3769 32.8455 35.7595C31.8742 36.7087 30.5715 37.2234 28.9012 37.3191C26.9071 37.4442 25.0313 36.8922 23.9275 35.8621ZM32.7938 31.0212C32.5069 30.933 32.4037 30.9404 32.117 31.0212C31.0723 31.3376 30.5788 33.1469 31.3289 33.905C31.7336 34.3097 32.5731 34.1411 33.0955 33.5525C33.9195 32.6107 33.7648 31.2937 32.7938 31.0212ZM24.5008 31.0212C24.1844 30.933 24.0886 30.9398 23.7723 31.0281C23.4486 31.1237 23.1097 31.4845 23.0066 31.8523C22.83 32.4998 23.1986 33.4197 23.8094 33.8464C24.0522 34.023 24.2213 34.0753 24.5818 34.0974C25.1776 34.1342 25.3911 33.9792 25.5604 33.3982C25.8547 32.3975 25.3396 31.2567 24.5008 31.0212Z" fill="white"/>
<path d="M29.7101 7.71369C29.4746 6.91164 29.0331 5.99186 28.702 5.63131C28.5548 5.46207 28.3782 5.32225 28.312 5.32225C27.9662 5.32225 27.2524 6.48486 26.936 7.56652C26.5681 8.81742 26.6123 10.0315 27.0832 11.9667C27.223 12.5333 27.3407 13.0484 27.3407 13.0999C27.3407 13.3354 27.2009 13.1441 26.833 12.4009C25.6042 9.92851 24.0737 8.5746 22.1237 8.23612C21.1893 8.07424 21.0936 8.14782 21.2334 8.92044C21.41 9.88437 21.8147 10.7674 22.4696 11.5915C22.8964 12.1286 23.2716 12.4597 24.4342 13.3207C25.1848 13.8799 25.6483 14.3508 25.8985 14.8217L26.0954 15.2283H30.5931C30.5287 15.2136 30.4827 15.0616 30.8138 14.5716C31.0934 14.1374 31.5938 13.6812 32.4473 13.0999C33.9264 12.0918 34.905 10.8115 35.2435 9.45023C35.5231 8.31706 35.4495 8.06688 34.8535 8.14782C33.7645 8.29499 32.9036 8.6629 32.0426 9.35457C31.1008 10.0978 30.5563 10.8115 29.8278 12.2316C29.5776 12.7394 29.3348 13.1367 29.2907 13.1146C29.195 13.0778 29.2097 12.9969 29.5629 11.6136C29.8425 10.5172 29.8646 10.3626 29.872 9.36929C29.8793 8.45687 29.8572 8.21405 29.7101 7.71369Z" fill="#0AAD0B"/>
<path d="M81.9923 31.2134C81.9175 31.1386 79.6891 27.8483 77.0418 23.9298L72.2409 16.7958L70.2368 16.7509C69.1301 16.7359 68.1729 16.7658 68.1131 16.8107C68.0533 16.8705 68.0084 21.7911 68.0084 27.7436C68.0084 40.5759 67.7392 39.2149 70.2518 39.1252C71.3137 39.0952 71.9418 39.0055 72.1063 38.8709C72.3157 38.6914 72.3456 37.9137 72.3756 31.4976L72.4204 24.3187L77.1764 31.4976C79.7938 35.446 82.0372 38.7662 82.1718 38.8859C82.441 39.0952 85.6565 39.17 86.1501 38.9756C86.3894 38.8709 86.4043 38.2278 86.3744 27.8333L86.3296 16.7958L84.4601 16.7509C83.4281 16.7359 82.4859 16.7808 82.3662 16.8705C82.1718 16.9902 82.1419 17.9773 82.1419 24.184C82.1419 28.97 82.097 31.3181 81.9923 31.2134Z" fill="#0AAD0B"/>
<path d="M114.342 19.8617C113.759 18.5007 113.146 17.2444 112.981 17.05C112.697 16.7359 112.548 16.721 110.768 16.721C109.392 16.721 108.838 16.7808 108.719 16.9154C108.554 17.1098 108.42 18.3811 108.091 22.7034C106.969 37.8688 106.939 38.482 107.193 38.7812C107.448 39.0803 110.663 39.1102 110.902 38.8111C111.067 38.6167 111.306 36.0442 111.875 28.4764L112.204 24.1691L113.684 27.5043C116.316 33.4867 116.81 34.5336 117.064 34.8627C117.408 35.2814 119.128 35.4161 119.936 35.0721C120.549 34.8178 120.654 34.6234 123.436 28.2671L125.215 24.1691L125.395 26.6219C126.113 36.0442 126.352 38.6316 126.576 38.8559C126.741 39.0354 127.16 39.0803 128.431 39.0653L128.432 39.0653C130.57 39.0354 130.585 39.0352 130.465 37.3603C130.061 31.8116 129.014 18.4559 128.954 17.9474C128.79 16.8556 128.536 16.721 126.651 16.721C125.32 16.721 124.961 16.7658 124.707 16.9752C124.468 17.1846 119.652 27.7885 118.979 29.6281C118.829 30.0319 118.709 29.8075 117.109 26.1882C116.167 24.0644 114.926 21.2227 114.342 19.8617Z" fill="#0AAD0B"/>
<path d="M91.6091 24.3489C93.5833 22.644 96.604 21.8959 99.281 22.4641C100.792 22.7931 102.033 23.4959 103.245 24.7073C104.965 26.4272 105.697 28.2524 105.697 30.8547C105.697 33.3075 104.844 35.3862 103.229 36.8967C101.315 38.6764 99.2963 39.4095 96.6492 39.26C92.7608 39.0506 89.8592 36.7026 89.0066 33.0686C88.6626 31.6478 88.7822 29.0899 89.2459 27.8635C89.6945 26.6521 90.7566 25.0967 91.6091 24.3489ZM97.5466 25.8889C96.6642 25.844 96.3799 25.8896 95.7517 26.1887C91.953 28.0432 92.1921 34.5182 96.1101 35.6702C97.6655 36.1188 99.1466 35.7005 100.223 34.5041C101.21 33.4273 101.435 32.7391 101.435 30.8547C101.435 29.3892 101.39 29.12 101.046 28.3723C100.612 27.4601 99.8198 26.5923 99.072 26.2034C98.8178 26.0538 98.1299 25.9189 97.5466 25.8889Z" fill="#0AAD0B"/>
<path d="M138.316 22.4793C139.677 22.1952 141.069 22.2099 142.385 22.5389C143.745 22.8978 144.374 23.197 145.585 24.1092C146.647 24.9168 147.724 26.3976 148.188 27.7137C148.636 28.9552 148.756 31.6773 148.412 33.0233C147.889 35.117 146.691 36.7767 144.882 37.9432C143.596 38.7807 142.37 39.1549 140.68 39.2596C135.52 39.5737 131.721 36.0442 131.721 30.9295C131.721 26.8615 134.503 23.3169 138.316 22.4793ZM143.178 27.2196C142.086 26.0232 140.41 25.5454 139.124 26.0389C136.881 26.9214 135.73 29.0449 136.059 31.7069C136.268 33.4267 137.001 34.6228 138.287 35.3856C138.885 35.7296 139.14 35.7899 140.172 35.7899C141.173 35.7899 141.502 35.73 142.115 35.4012C144.748 34.0552 145.331 29.5527 143.178 27.2196Z" fill="#0AAD0B"/>
<path d="M154.619 23.182C156.474 22.2848 158.567 22.0303 160.631 22.4789C162.082 22.778 163.338 23.4957 164.565 24.722C166.659 26.8009 167.422 29.553 166.779 32.6937C166.42 34.4585 165.791 35.6249 164.565 36.8363C162.665 38.7208 160.841 39.3938 157.969 39.2592C155.397 39.1395 153.946 38.5114 152.375 36.8363C149.923 34.2191 149.43 30.1366 151.119 26.6371C151.703 25.4256 153.363 23.7952 154.619 23.182ZM160.363 26.2025C159.405 25.7538 157.954 25.7245 157.057 26.1283C156.16 26.5321 155.411 27.2648 154.992 28.1322C153.288 31.7963 155.172 35.715 158.642 35.7152C161.334 35.7003 162.98 33.5764 162.785 30.3461C162.666 28.2673 161.858 26.8905 160.363 26.2025Z" fill="#0AAD0B"/>
<defs>
<linearGradient id="paint0_linear_102_1374" x1="28" y1="0" x2="28" y2="56" gradientUnits="userSpaceOnUse">
<stop stop-color="#00391E"/>
<stop offset="1" stop-color="#004825"/>
</linearGradient>
</defs>
</svg>
