<svg width="44" height="44" viewBox="0 0 44 44" fill="none" xmlns="http://www.w3.org/2000/svg">
<rect x="0.5" y="0.5" width="43" height="43" rx="7.5" stroke="#0AAD0B"/>
<g clip-path="url(#clip0_109_1063)">
<path d="M31.792 28.7035C31.429 29.542 30.9994 30.3139 30.5016 31.0235C29.8231 31.9908 29.2676 32.6605 28.8395 33.0323C28.1758 33.6426 27.4647 33.9552 26.7032 33.973C26.1566 33.973 25.4973 33.8175 24.73 33.5019C23.9601 33.1878 23.2525 33.0323 22.6056 33.0323C21.9271 33.0323 21.1994 33.1878 20.4211 33.5019C19.6415 33.8175 19.0136 33.9819 18.5334 33.9982C17.8032 34.0293 17.0754 33.7078 16.3489 33.0323C15.8852 32.6279 15.3052 31.9345 14.6104 30.9524C13.865 29.9035 13.2521 28.6872 12.772 27.3006C12.2578 25.8029 12 24.3526 12 22.9484C12 21.3401 12.3475 19.9528 13.0437 18.7904C13.5908 17.8566 14.3186 17.12 15.2295 16.5793C16.1405 16.0386 17.1247 15.763 18.1847 15.7454C18.7647 15.7454 19.5252 15.9248 20.4704 16.2774C21.4129 16.6312 22.0181 16.8106 22.2834 16.8106C22.4817 16.8106 23.154 16.6008 24.2937 16.1826C25.3714 15.7947 26.281 15.6342 27.0262 15.6974C29.0454 15.8604 30.5624 16.6563 31.5712 18.0904C29.7654 19.1846 28.8721 20.7171 28.8898 22.6831C28.9061 24.2145 29.4617 25.4888 30.5535 26.5006C31.0483 26.9703 31.6009 27.3332 32.2156 27.591C32.0823 27.9776 31.9416 28.348 31.792 28.7035ZM27.161 10.4804C27.161 11.6807 26.7225 12.8013 25.8484 13.8386C24.7937 15.0718 23.5179 15.7844 22.1343 15.6719C22.1167 15.5279 22.1065 15.3764 22.1065 15.2171C22.1065 14.0649 22.6081 12.8317 23.4989 11.8235C23.9436 11.3129 24.5092 10.8885 25.1951 10.5499C25.8796 10.2163 26.5269 10.0318 27.1358 10.0002C27.1536 10.1607 27.161 10.3212 27.161 10.4804V10.4804Z" fill="#131313"/>
</g>
<defs>
<clipPath id="clip0_109_1063">
<rect width="24" height="24" fill="white" transform="translate(10 10)"/>
</clipPath>
</defs>
</svg>
