<svg width="54" height="54" viewBox="0 0 54 54" fill="none" xmlns="http://www.w3.org/2000/svg">
<path d="M0.333984 13.6668V0.333496H13.6673V5.66683H5.66732V13.6668H0.333984ZM0.333984 53.6668V40.3335H5.66732V48.3335H13.6673V53.6668H0.333984ZM40.334 53.6668V48.3335H48.334V40.3335H53.6673V53.6668H40.334ZM48.334 13.6668V5.66683H40.334V0.333496H53.6673V13.6668H48.334ZM41.6673 41.6668H45.6673V45.6668H41.6673V41.6668ZM41.6673 33.6668H45.6673V37.6668H41.6673V33.6668ZM37.6673 37.6668H41.6673V41.6668H37.6673V37.6668ZM33.6673 41.6668H37.6673V45.6668H33.6673V41.6668ZM29.6673 37.6668H33.6673V41.6668H29.6673V37.6668ZM37.6673 29.6668H41.6673V33.6668H37.6673V29.6668ZM33.6673 33.6668H37.6673V37.6668H33.6673V33.6668ZM29.6673 29.6668H33.6673V33.6668H29.6673V29.6668ZM45.6673 8.3335V24.3335H29.6673V8.3335H45.6673ZM24.334 29.6668V45.6668H8.33398V29.6668H24.334ZM24.334 8.3335V24.3335H8.33398V8.3335H24.334ZM20.334 41.6668V33.6668H12.334V41.6668H20.334ZM20.334 20.3335V12.3335H12.334V20.3335H20.334ZM41.6673 20.3335V12.3335H33.6673V20.3335H41.6673Z" fill="#0AAD0B"/>
</svg>
