<svg width="60" height="60" viewBox="0 0 60 60" fill="none" xmlns="http://www.w3.org/2000/svg">
<path d="M33.5327 32.6665C32.1105 30.6665 30.2327 29.2776 27.8994 28.4998C25.566 27.7221 23.1549 27.3332 20.666 27.3332C18.1771 27.3332 15.766 27.7221 13.4327 28.4998C11.0993 29.2776 9.22157 30.6665 7.79935 32.6665H33.5327ZM0.666016 37.9998C0.666016 33.1554 2.68824 29.2776 6.73268 26.3665C10.7771 23.4554 15.4216 21.9998 20.666 21.9998C25.9105 21.9998 30.5549 23.4554 34.5993 26.3665C38.6438 29.2776 40.666 33.1554 40.666 37.9998H0.666016ZM0.666016 48.6665V43.3332H40.666V48.6665H0.666016ZM45.9994 59.3332V53.9998H49.7327L53.466 16.6665H27.9993L27.3327 11.3332H40.666V0.666504H45.9994V11.3332H59.3327L54.9327 55.4665C54.7994 56.5776 54.3105 57.4998 53.466 58.2332C52.6216 58.9665 51.6438 59.3332 50.5327 59.3332H45.9994ZM3.33268 59.3332C2.57713 59.3332 1.94379 59.0776 1.43268 58.5665C0.921571 58.0554 0.666016 57.4221 0.666016 56.6665V53.9998H40.666V56.6665C40.666 57.4221 40.4105 58.0554 39.8994 58.5665C39.3882 59.0776 38.7549 59.3332 37.9994 59.3332H3.33268Z" fill="#0AAD0B"/>
</svg>
