<svg width="38" height="54" viewBox="0 0 38 54" fill="none" xmlns="http://www.w3.org/2000/svg">
<path d="M13.6673 43.0002C12.2007 43.0002 10.9451 42.4779 9.90065 41.4335C8.85621 40.389 8.33398 39.1335 8.33398 37.6668V34.3335C5.80065 32.6002 3.83398 30.3779 2.43398 27.6668C1.03398 24.9557 0.333984 22.0668 0.333984 19.0002C0.333984 13.8002 2.1451 9.38905 5.76732 5.76683C9.38954 2.14461 13.8006 0.333496 19.0007 0.333496C24.2006 0.333496 28.6118 2.14461 32.234 5.76683C35.8562 9.38905 37.6673 13.8002 37.6673 19.0002C37.6673 22.0668 36.9673 24.9446 35.5673 27.6335C34.1673 30.3224 32.2006 32.5557 29.6673 34.3335V37.6668C29.6673 39.1335 29.1451 40.389 28.1007 41.4335C27.0562 42.4779 25.8006 43.0002 24.334 43.0002H13.6673ZM13.6673 37.6668H24.334V31.5335L26.6007 29.9335C28.4229 28.6891 29.834 27.1002 30.834 25.1668C31.834 23.2335 32.334 21.1779 32.334 19.0002C32.334 15.3113 31.034 12.1668 28.434 9.56683C25.834 6.96683 22.6895 5.66683 19.0007 5.66683C15.3118 5.66683 12.1673 6.96683 9.56732 9.56683C6.96732 12.1668 5.66732 15.3113 5.66732 19.0002C5.66732 21.1779 6.16732 23.2335 7.16732 25.1668C8.16732 27.1002 9.57843 28.6891 11.4007 29.9335L13.6673 31.5335V37.6668ZM13.6673 53.6668C12.9118 53.6668 12.2784 53.4113 11.7673 52.9002C11.2562 52.389 11.0007 51.7557 11.0007 51.0002V48.3335H27.0006V51.0002C27.0006 51.7557 26.7451 52.389 26.234 52.9002C25.7229 53.4113 25.0895 53.6668 24.334 53.6668H13.6673Z" fill="#0AAD0B"/>
</svg>
